# xmcd CD database file
#
# Track frame offsets:
#	150
#	18498
#	39128
#	58857
#	83027
#	99467
#	116378
#	135360
#	156511
#	178758
#	204287
#
# Disc length: 2952 seconds
#
# Revision: 0
# Processed by: cddbd v1.5PL3 Copyright (c) Steve Scherf et al.
# Submitted via: CDex 1.51
#
DISCID=850b860b
DTITLE=Odeon Jazz Quartet - Tocando pra vocé
DYEAR=2003
DGENRE=Jazz
TTITLE0=Tocando Pra Vocé
TTITLE1=Pretty Baby #
TTITLE2=Climax Rag
TTITLE3=La Catedral - Prelude
TTITLE4=Miranda
TTITLE5=Burgundy Street Blues
TTITLE6=Remeleixo
TTITLE7=Garôto
TTITLE8=Ida, Sweet As Apple Cider
TTITLE9=My Life Will Be Sweeter Someday
TTITLE10=My Gal Sal #
EXTD=YEAR: 2003
EXTT0=
EXTT1=
EXTT2=
EXTT3=
EXTT4=
EXTT5=
EXTT6=
EXTT7=
EXTT8=
EXTT9=
EXTT10=
PLAYORDER=
